<svg id="Layer_1" data-name="Layer 1" xmlns="http://www.w3.org/2000/svg" viewBox="0 0 135 135"><defs><style>.cls-1{fill:currentColor;}</style></defs><title>44</title><g id="n80npf.tif"><path class="cls-1" d="M1069.33,293v-5c-2.27-2.86-4.51-5.77-8.2-6.94-1.86-.6-1.85-2.08-1.87-3.62,0-4.13-1.57-7.45-5.48-9.25-1.84-.85-2.22-2-1.86-4a20.9,20.9,0,0,0,.18-6.92c-.84-5.31-3.88-7.57-10-7.38-3.75.12-7.31.38-9.32-3.72a2.22,2.22,0,0,0-1.56-1.13c-8.37.67-10.64-7.35-15.89-11.09h-6c-4,3.06-7.63,6.3-13.67,3.54-4.08-1.87-7.07,2.17-9.34,5.14-2.59,3.39-4,3.18-6.48-.22-4.14-5.73-7.08-5.69-11.13,0C951.4,267,945.62,293.28,957.22,322c1.4,3.46.56,4.88-2.61,6.44-6.84,3.38-13.94,6.28-20.28,10.62v4c7.26,6,13.36,13.15,20.16,19.6,2.27,2.14,4.56,4.26,6.84,6.4h2c5.48-5.64,7.8-13.09,11.19-19.89,1.93-3.86,3.69-4.44,7.68-2.83,26.85,10.81,51.76,5.17,75.46-9.54a16,16,0,0,0,2-1.54c7-6,7-6.51-.09-12.7-2.18-1.9-2.38-3.23.07-5,5.14-3.74,8.37-8.2,4.56-14.76-.76-1.3.1-2.16.76-3.12C1066.41,297.42,1067.86,295.21,1069.33,293Zm-28.07-35c2.44,0,3.35,1.08,2.89,3.32-.58,2.86-.83,6-5.15,5.73-3.51-.21-2.54-2.66-2.67-4.6C1036,258.7,1038.22,258,1041.26,258Zm-24.9-.62c1.77-1.23,3.44-2.62,5.26-3.77,4.52-2.88,6.6-1.71,6.77,3.71,0,.83,0,1.66,0,2.87-.52,2.37,1.12,6.45-2.6,7.37-3.55.88-7,1-10.7-2.54C1010.4,260.52,1013.31,259.44,1016.36,257.34Zm7,18.6c2,0,3.27.78,2.86,2.89-.55,2.77-.41,6.09-4.76,6.17-3.33.06-3.24-2-3.09-4.4C1017.9,277,1019.93,275.87,1023.34,275.94Zm-11-33.41c2,0,2.8,2.46,2.67,4.18-.22,2.88-3.07,3.58-4.93,5a4.42,4.42,0,0,1-2.63-4.58A4.72,4.72,0,0,1,1012.34,242.53Zm-18.61,23.83c-1.35-3.92-4-7.31-4.59-11.53a13.51,13.51,0,0,1,3.92-7.93c1.22-1.25,2.58-1.21,4-.08,6.3,5,5.78,15.78-.94,19.93C995.05,267.4,994.16,267.61,993.73,266.36Zm2.7,17.51c-2.29-6.61,2.58-9.87,7.89-12.74,4.11-2.22,5.82-1.19,6.06,3.39.07,1.16,0,2.32,0,3.48-.09,8.13-4.13,13-11.91,14.44-1.82.35-2-.59-2-1.84C996.39,288.61,996.43,286.62,996.43,283.87Zm35.8,14.1c-3.16,7.35-5.37,9-13.46,8.89-7.3-.14-14.56,0-22.13,2.34a12.2,12.2,0,0,1,4.68-8.66c8.1-6.38,17.64-8.15,27.63-8C1032.58,292.54,1033.87,294.18,1032.23,298Zm2.37-20.5c0-2.1,2.06-2.25,3.77-2.44,2.15-.23,4.28-.55,6.43-.84,6.21,0,7.54,2.21,4.56,7.56-.57,1-1.21,2-1.87,3-4.9,7.12-7.93,7.29-13.17.47C1032.46,282.75,1034.55,280.05,1034.6,277.47ZM1055,311.2c-4.7,3.54-9.14,2.92-13.8.18-1.7-1-3.54-1.74-5.35-2.62,6.32-9.06,11.64-10,19.32-3.68C1058,307.4,1057.93,309,1055,311.2Zm5.69-19.84c-.46,2.07-2.24,4.35-4.8,4.4-1.62,0-4.3-.65-4-2.75.33-2.27,1.72-4.65,4.73-5C1058.21,288.88,1061.21,288.75,1060.64,291.36Z" transform="translate(-934.33 -234.01)"/></g></svg>